<?xml version="1.0" standalone="no"?>
<!DOCTYPE svg PUBLIC "-//W3C//DTD SVG 20010904//EN"
 "http://www.w3.org/TR/2001/REC-SVG-20010904/DTD/svg10.dtd">
<svg version="1.0" xmlns="http://www.w3.org/2000/svg"
 width="189.000000pt" height="83.000000pt" viewBox="0 0 189.000000 83.000000"
 preserveAspectRatio="xMidYMid meet">

<g transform="translate(0.000000,83.000000) scale(0.100000,-0.100000)"
fill="#000000" stroke="none">
<path d="M950 707 l-55 -33 0 -74 c0 -50 4 -75 13 -77 9 -4 12 14 12 65 0 53
4 71 15 76 12 4 13 2 3 -14 -21 -33 -2 -32 57 4 l57 34 58 -34 c66 -38 70 -40
70 -20 0 7 -28 30 -62 51 l-63 37 -47 -26 c-27 -15 -48 -25 -48 -22 0 2 18 15
40 27 21 12 37 26 34 31 -9 14 -28 9 -84 -25z"/>
<path d="M70 555 l0 -155 30 0 30 0 0 155 0 155 -30 0 -30 0 0 -155z"/>
<path d="M210 555 l0 -155 35 0 34 0 3 97 3 96 74 -96 c63 -83 78 -97 102 -97
l29 0 0 155 0 155 -35 0 -34 0 -3 -92 -3 -92 -70 92 c-63 83 -73 92 -102 92
l-33 0 0 -155z"/>
<path d="M625 700 c-35 -14 -76 -66 -85 -106 -17 -74 15 -145 82 -180 40 -21
117 -18 156 6 37 23 39 31 14 53 -16 15 -21 15 -38 2 -22 -17 -77 -19 -105 -5
-51 28 -60 111 -17 157 25 27 91 31 122 8 17 -13 22 -13 38 2 26 23 22 40 -12
58 -31 16 -122 19 -155 5z"/>
<path d="M1220 554 l0 -156 88 4 c138 7 192 50 192 153 0 104 -66 154 -202
155 l-78 0 0 -156z m165 86 c15 -6 32 -24 41 -46 30 -71 -17 -134 -101 -134
l-35 0 0 95 0 95 34 0 c19 0 46 -4 61 -10z"/>
<path d="M1570 555 l0 -155 115 0 115 0 0 30 0 30 -86 0 -85 0 3 33 3 32 73 3
72 3 0 29 0 30 -75 0 -75 0 0 30 0 30 85 0 85 0 0 30 0 30 -115 0 -115 0 0
-155z"/>
<path d="M1035 660 c4 -6 11 -8 16 -5 14 9 11 15 -7 15 -8 0 -12 -5 -9 -10z"/>
<path d="M1110 530 c0 -68 0 -70 -32 -85 -29 -14 -31 -14 -14 0 11 8 23 15 28
15 4 0 8 9 8 21 0 20 -1 20 -44 -5 -26 -15 -52 -23 -63 -20 -13 4 -15 3 -4 -4
9 -7 10 -12 2 -16 -6 -4 -41 10 -77 30 -55 31 -65 34 -62 18 1 -10 29 -34 61
-53 58 -34 58 -34 95 -17 28 12 32 13 18 2 -10 -9 -24 -17 -30 -20 -7 -3 -7
-8 3 -14 9 -7 32 1 77 27 l64 36 0 71 c0 55 -4 73 -15 78 -12 4 -15 -6 -15
-64z"/>
<path d="M554 260 c-34 -13 -54 -50 -54 -98 0 -59 33 -92 90 -92 62 0 80 14
80 60 l0 40 -42 -1 -43 -2 35 -6 c28 -5 34 -10 34 -31 0 -30 -38 -53 -74 -45
-63 14 -83 105 -33 145 27 21 55 23 96 5 10 -4 17 -3 17 4 0 13 -42 31 -68 30
-9 0 -27 -4 -38 -9z"/>
<path d="M1713 260 c-12 -5 -24 -18 -28 -29 -10 -33 12 -59 63 -73 36 -10 48
-19 50 -36 5 -34 -37 -49 -79 -28 -37 18 -54 12 -25 -10 27 -19 91 -18 111 2
9 9 15 28 13 42 -2 21 -13 30 -58 47 -39 15 -55 26 -55 39 0 30 29 43 67 28
33 -12 49 -9 32 8 -15 15 -66 21 -91 10z"/>
<path d="M70 165 l0 -95 70 0 c40 0 70 4 70 10 0 6 -27 10 -60 10 l-60 0 0 35
0 35 56 0 c34 0 53 4 49 10 -3 6 -28 10 -56 10 l-49 0 0 35 0 34 63 4 62 3
-72 2 -73 2 0 -95z"/>
<path d="M270 165 c0 -114 18 -129 22 -18 l3 77 60 -76 c33 -43 63 -77 68 -78
4 0 7 43 7 95 0 61 -4 95 -11 95 -6 0 -10 -25 -9 -67 1 -38 1 -72 1 -76 -1 -5
-28 26 -61 67 -33 42 -65 76 -70 76 -6 0 -10 -39 -10 -95z"/>
<path d="M740 165 c0 -57 4 -95 10 -95 6 0 10 38 10 95 0 57 -4 95 -10 95 -6
0 -10 -38 -10 -95z"/>
<path d="M830 165 c0 -116 18 -128 22 -15 l3 80 63 -80 c35 -44 68 -80 73 -80
5 0 9 43 9 95 0 114 -18 129 -22 18 l-3 -76 -60 76 c-33 43 -65 77 -72 77 -10
0 -13 -25 -13 -95z"/>
<path d="M1070 165 l0 -95 70 0 c40 0 70 4 70 10 0 6 -27 10 -60 10 l-60 0 0
35 0 35 56 0 c34 0 53 4 49 10 -3 6 -28 10 -56 10 l-49 0 0 35 0 34 63 4 62 3
-72 2 -73 2 0 -95z"/>
<path d="M1270 165 l0 -95 70 0 c40 0 70 4 70 10 0 6 -27 10 -60 10 l-60 0 0
35 0 35 55 0 c30 0 55 5 55 10 0 6 -25 10 -55 10 l-55 0 0 35 0 34 63 4 62 3
-72 2 -73 2 0 -95z"/>
<path d="M1470 165 c0 -57 4 -95 10 -95 6 0 10 18 10 40 0 38 2 40 29 40 23 0
36 -9 58 -40 15 -22 34 -40 41 -40 8 0 2 15 -17 39 l-30 38 23 11 c29 13 38
43 22 74 -10 20 -20 23 -79 26 l-67 3 0 -96z m120 65 c35 -35 2 -70 -64 -70
-36 0 -36 0 -36 45 l0 45 40 0 c27 0 47 -7 60 -20z"/>
</g>
</svg>
